<svg xmlns="http://www.w3.org/2000/svg" width="1039.7" height="96.3" viewBox="0 0 1039.7 96.3">
  <defs>
    <style>
      .a {
        fill: #f8f8f2;
      }

      .b {
        fill: #d33a2c;
      }
    </style>
  </defs>
  <title>3) loveyouforms__heart-red-text-light-gray</title>
  <g>
    <path class="a" d="M2551.5,1136.9h26.9v71h27.1v23.5h-54v-94.5Z" transform="translate(-2413.1 -1136.9)"/>
    <path class="a" d="M2649.1,1233.2c-22.5,0-39.7-15.8-39.7-37.4s17.1-37.4,39.7-37.4,39.7,15.8,39.7,37.4S2671.7,1233.2,2649.1,1233.2Zm0-22.5c7.8,0,13.5-5.8,13.5-14.8s-5.7-15-13.5-15-13.5,5.9-13.5,15S2641.3,1210.7,2649.1,1210.7Z" transform="translate(-2413.1 -1136.9)"/>
    <path class="a" d="M2711.7,1231.4l-24.2-71.3h28.1l11.5,44.3,11.3-44.3h27.3l-23.5,71.3h-30.5Z" transform="translate(-2413.1 -1136.9)"/>
    <path class="a" d="M2800.5,1158.4c23.5,0,35.9,14.6,35.9,39.6,0,1.5-.1,3.4-0.3,4.7h-44.5c1.3,5.5,5.9,8.6,12.4,8.6a16.6,16.6,0,0,0,12.8-6.3l17.8,12.4c-1.6,3.5-11.6,15.8-31,15.8-24.4,0-38.9-17.5-38.9-38.3S2778.6,1158.4,2800.5,1158.4Zm9.3,28.3a8.9,8.9,0,0,0-17.5,0h17.5Z" transform="translate(-2413.1 -1136.9)"/>
    <path class="a" d="M2868.7,1189.2l-29.3-52.2h30.1l12.6,28.5,13.1-28.5h29.6l-29.3,52.2v42.3h-26.7v-42.3Z" transform="translate(-2413.1 -1136.9)"/>
    <path class="a" d="M2955.5,1233.2c-22.5,0-39.7-15.8-39.7-37.4s17.1-37.4,39.7-37.4,39.7,15.8,39.7,37.4S2978,1233.2,2955.5,1233.2Zm0-22.5c7.8,0,13.5-5.8,13.5-14.8s-5.7-15-13.5-15-13.5,5.9-13.5,15S2947.6,1210.7,2955.5,1210.7Z" transform="translate(-2413.1 -1136.9)"/>
    <path class="a" d="M3003,1206.1v-45.9h26.2v42c0,5.4,3.2,8,7.6,8s7.6-3.5,7.6-7.6v-42.4h26.2v71.3H3045v-6.7c-2.6,3.6-9,8.5-17.8,8.5C3010.3,1233.2,3003,1222.5,3003,1206.1Z" transform="translate(-2413.1 -1136.9)"/>
    <path class="a" d="M3083.6,1136.9h52.5v23.5h-25.7v13.2h22.3V1197h-22.3v34.4h-26.9v-94.5Z" transform="translate(-2413.1 -1136.9)"/>
    <path class="a" d="M3180.9,1233.2c-22.5,0-39.7-15.8-39.7-37.4s17.1-37.4,39.7-37.4,39.7,15.8,39.7,37.4S3203.5,1233.2,3180.9,1233.2Zm0-22.5c7.8,0,13.5-5.8,13.5-14.8s-5.7-15-13.5-15-13.5,5.9-13.5,15S3173.1,1210.7,3180.9,1210.7Z" transform="translate(-2413.1 -1136.9)"/>
    <path class="a" d="M3273,1183.9a15.7,15.7,0,0,0-4.2-.5c-8.8,0-13.6,5.5-13.6,14.8v33.2H3229v-71.3h25.5v9a20.7,20.7,0,0,1,18.5-10.8v25.5Z" transform="translate(-2413.1 -1136.9)"/>
    <path class="a" d="M3386.6,1231.4h-26.2v-42.5c0-4.5-2.7-7.4-6.9-7.4s-6.5,3.2-6.5,7.4v42.5H3321v-42c0-5-2.4-8-6.7-8s-6.5,2.4-6.5,7.6v42.4h-26.2v-71.3h25.5v6.8c2.4-3.8,7.7-8.5,17.3-8.5,7.8,0,13.9,3.1,18,8.4,4.3-4.9,10.7-8.4,19.8-8.4,16.2,0,24.4,12.3,24.4,27.1v45.9Z" transform="translate(-2413.1 -1136.9)"/>
    <path class="a" d="M3407.7,1207.6a27.4,27.4,0,0,0,15.3,5c3.5,0,4.9-1.2,4.9-2.6,0-5.9-32.1-3.4-32.1-28.5,0-14,12.7-23.1,29.2-23.1,13.2,0,21.9,5.9,26.9,11.7l-16.9,13.4c-2.6-2.3-5.9-4.6-10.5-4.6-2.8,0-4.1,1.2-4.1,2.4,0,7,32.5,4.2,32.5,27.8,0,15.8-12.3,24-29.7,24-13.4,0-25.1-5.9-29.7-11.3Z" transform="translate(-2413.1 -1136.9)"/>
  </g>
  <path class="b" d="M2500.3,1138c13.4,3.7,22.2,16.3,21.4,30.5-1,17.7-15.4,28.4-29.3,38.7-10,7.4-19.4,14.4-22.8,23.3a2.3,2.3,0,0,1-2.1,1.5,2.2,2.2,0,0,1-2.1-1.5c-3.4-9.2-12.9-16.1-22.9-23.5-13.7-10.1-27.9-20.6-29.3-38.4-1.2-16,10.2-27.6,22.2-30.7,9.8-2.6,23.6-.2,32.1,14.2C2476.8,1137.6,2490.3,1135.2,2500.3,1138Z" transform="translate(-2413.1 -1136.9)"/>
</svg>
