<svg xmlns="http://www.w3.org/2000/svg" width="1039.7" height="96.3" viewBox="0 0 1039.7 96.3">
  <defs>
    <style>
      .a {
        fill: none;
      }

      .b {
        fill: #d33a2c;
      }
    </style>
  </defs>
  <title>logo-heart-text-white</title>
  <rect class="a" width="1039.6" height="95"/>
  <g>
    <path d="M138.4,20.3h26.9v71h27.1v23.5h-54V20.3Z" transform="translate(0 -20.2)"/>
    <path d="M236,116.5c-22.5,0-39.7-15.8-39.7-37.4S213.5,41.7,236,41.7s39.7,15.8,39.7,37.4S258.6,116.5,236,116.5ZM236,94c7.8,0,13.5-5.8,13.5-14.8s-5.7-15-13.5-15-13.5,5.9-13.5,15S228.2,94,236,94Z" transform="translate(0 -20.2)"/>
    <path d="M298.6,114.7L274.4,43.5h28.1l11.5,44.3,11.3-44.3h27.3l-23.5,71.3H298.6Z" transform="translate(0 -20.2)"/>
    <path d="M387.4,41.7c23.5,0,35.9,14.6,35.9,39.6,0,1.5-.1,3.4-0.3,4.7H378.5c1.3,5.5,5.9,8.6,12.4,8.6a16.6,16.6,0,0,0,12.8-6.3l17.8,12.4c-1.6,3.5-11.6,15.8-31,15.8-24.4,0-38.9-17.5-38.9-38.3S365.5,41.7,387.4,41.7Zm9.3,28.3a8.9,8.9,0,0,0-17.5,0h17.5Z" transform="translate(0 -20.2)"/>
    <path d="M455.6,72.5L426.3,20.3h30.1l12.6,28.5L482,20.3h29.6L482.3,72.5v42.3H455.6V72.5Z" transform="translate(0 -20.2)"/>
    <path d="M542.4,116.5c-22.5,0-39.7-15.8-39.7-37.4s17.1-37.4,39.7-37.4S582,57.5,582,79.1,564.9,116.5,542.4,116.5Zm0-22.5c7.8,0,13.5-5.8,13.5-14.8s-5.7-15-13.5-15-13.5,5.9-13.5,15S534.5,94,542.4,94Z" transform="translate(0 -20.2)"/>
    <path d="M589.9,89.4V43.5h26.2v42c0,5.4,3.2,8,7.6,8s7.6-3.5,7.6-7.6V43.5h26.2v71.3H631.9V108c-2.6,3.6-9,8.5-17.8,8.5C597.2,116.5,589.9,105.8,589.9,89.4Z" transform="translate(0 -20.2)"/>
    <path d="M670.5,20.3H723V43.7H697.3V57h22.3V80.3H697.3v34.4H670.5V20.3Z" transform="translate(0 -20.2)"/>
    <path d="M767.8,116.5c-22.5,0-39.7-15.8-39.7-37.4s17.1-37.4,39.7-37.4,39.7,15.8,39.7,37.4S790.4,116.5,767.8,116.5Zm0-22.5c7.8,0,13.5-5.8,13.5-14.8s-5.7-15-13.5-15-13.5,5.9-13.5,15S760,94,767.8,94Z" transform="translate(0 -20.2)"/>
    <path d="M859.9,67.2a15.7,15.7,0,0,0-4.2-.5c-8.8,0-13.6,5.5-13.6,14.8v33.2H815.9V43.5h25.5v9a20.7,20.7,0,0,1,18.5-10.8V67.2Z" transform="translate(0 -20.2)"/>
    <path d="M973.5,114.7H947.4V72.2c0-4.5-2.7-7.4-6.9-7.4S934,68,934,72.2v42.5H907.9v-42c0-5-2.4-8-6.7-8s-6.5,2.4-6.5,7.6v42.4H868.5V43.5H894v6.8c2.4-3.8,7.7-8.5,17.3-8.5,7.8,0,13.9,3.1,18,8.4,4.3-4.9,10.7-8.4,19.8-8.4,16.2,0,24.4,12.3,24.4,27.1v45.9Z" transform="translate(0 -20.2)"/>
    <path d="M994.6,90.9a27.4,27.4,0,0,0,15.3,5c3.5,0,4.9-1.2,4.9-2.6,0-5.9-32.1-3.4-32.1-28.5,0-14,12.7-23.1,29.2-23.1,13.2,0,21.9,5.9,26.9,11.7l-16.9,13.4c-2.6-2.3-5.9-4.6-10.5-4.6-2.8,0-4,1.2-4,2.4,0,7,32.5,4.2,32.5,27.8,0,15.8-12.3,24-29.7,24-13.4,0-25.1-5.9-29.7-11.3Z" transform="translate(0 -20.2)"/>
  </g>
  <path class="b" d="M87.2,21.3c13.4,3.7,22.2,16.3,21.4,30.5-1,17.7-15.4,28.4-29.3,38.7-10,7.4-19.4,14.4-22.8,23.3a2.3,2.3,0,0,1-2.1,1.5,2.2,2.2,0,0,1-2.1-1.5c-3.4-9.2-12.9-16.1-22.9-23.5C15.6,80.2,1.5,69.7.1,51.8c-1.2-16,10.2-27.6,22.2-30.7,9.8-2.6,23.6-.2,32.1,14.2C63.7,20.9,77.2,18.5,87.2,21.3Z" transform="translate(0 -20.2)"/>
</svg>
