<svg xmlns="http://www.w3.org/2000/svg" width="839" height="125.7" viewBox="0 0 839 125.7">
  <defs>
    <style>
      .a {
        fill: #fff;
      }
    </style>
  </defs>
  <title>3) loveyoufyi__heart-text-white</title>
  <g>
    <path class="a" d="M1303.9,193.8h26.9v71h27.1v23.5h-54V193.8Z" transform="translate(-1165.4 -186.7)"/>
    <path class="a" d="M1401.5,290c-22.5,0-39.7-15.8-39.7-37.4s17.1-37.4,39.7-37.4,39.7,15.8,39.7,37.4S1424,290,1401.5,290Zm0-22.5c7.8,0,13.5-5.8,13.5-14.8s-5.7-15-13.5-15-13.5,5.9-13.5,15S1393.7,267.5,1401.5,267.5Z" transform="translate(-1165.4 -186.7)"/>
    <path class="a" d="M1464,288.2L1439.8,217h28.1l11.5,44.3,11.3-44.3H1518l-23.5,71.3H1464Z" transform="translate(-1165.4 -186.7)"/>
    <path class="a" d="M1552.8,215.2c23.5,0,35.9,14.6,35.9,39.6,0,1.5-.1,3.4-0.3,4.7h-44.5c1.3,5.5,5.9,8.6,12.4,8.6a16.6,16.6,0,0,0,12.8-6.3l17.8,12.4c-1.6,3.5-11.6,15.8-31,15.8-24.4,0-38.9-17.5-38.9-38.3S1531,215.2,1552.8,215.2Zm9.3,28.3a8.9,8.9,0,0,0-17.5,0h17.5Z" transform="translate(-1165.4 -186.7)"/>
    <path class="a" d="M1621,246l-29.3-52.2h30.1l12.6,28.5,13.1-28.5H1677L1647.7,246v42.3H1621V246Z" transform="translate(-1165.4 -186.7)"/>
    <path class="a" d="M1707.8,290c-22.5,0-39.7-15.8-39.7-37.4s17.1-37.4,39.7-37.4,39.7,15.8,39.7,37.4S1730.3,290,1707.8,290Zm0-22.5c7.8,0,13.5-5.8,13.5-14.8s-5.7-15-13.5-15-13.5,5.9-13.5,15S1700,267.5,1707.8,267.5Z" transform="translate(-1165.4 -186.7)"/>
    <path class="a" d="M1755.3,262.9V217h26.2v42c0,5.4,3.2,8,7.6,8s7.6-3.5,7.6-7.6V217h26.2v71.3h-25.5v-6.7c-2.6,3.6-9,8.5-17.8,8.5C1762.6,290,1755.3,279.3,1755.3,262.9Z" transform="translate(-1165.4 -186.7)"/>
    <path class="a" d="M1835.9,193.8h52.5v23.5h-25.6v13.2h22.3v23.4h-22.3v34.4h-26.9V193.8Z" transform="translate(-1165.4 -186.7)"/>
    <path class="a" d="M1910.8,312.4l9.6-26.9L1894,217H1922l10.3,36.9,10.9-36.9h27.3l-35.1,95.4h-24.6Z" transform="translate(-1165.4 -186.7)"/>
    <path class="a" d="M1990.4,186.7c7.7,0,14,5.5,14,13.1s-6.3,13-14,13-13.9-5.5-13.9-13S1982.7,186.7,1990.4,186.7ZM1977.3,217h26.2v71.3h-26.2V217Z" transform="translate(-1165.4 -186.7)"/>
  </g>
  <path class="a" d="M1252.6,194.8c13.4,3.7,22.2,16.3,21.4,30.5-1,17.7-15.4,28.4-29.3,38.7-10,7.4-19.4,14.4-22.8,23.3a2.3,2.3,0,0,1-2.1,1.5,2.2,2.2,0,0,1-2.1-1.5c-3.4-9.2-12.9-16.1-22.9-23.5-13.7-10.1-27.9-20.6-29.3-38.4-1.2-16,10.2-27.6,22.2-30.7,9.8-2.6,23.6-.2,32.1,14.2C1229.1,194.4,1242.6,192,1252.6,194.8Z" transform="translate(-1165.4 -186.7)"/>
</svg>
