<svg xmlns="http://www.w3.org/2000/svg" width="839" height="125.7" viewBox="0 0 839 125.7">
  <defs>
    <style>
      .a {
        fill: #fff;
      }

      .b {
        fill: #d33a2c;
      }
    </style>
  </defs>
  <title>3) loveyoufyi__text-white-heart-red2</title>
  <g>
    <path class="a" d="M1302.2,1097.8h26.9v71h27.1v23.5h-54v-94.5Z" transform="translate(-1163.7 -1090.7)"/>
    <path class="a" d="M1399.8,1194c-22.5,0-39.7-15.8-39.7-37.4s17.1-37.4,39.7-37.4,39.7,15.8,39.7,37.4S1422.3,1194,1399.8,1194Zm0-22.5c7.8,0,13.5-5.8,13.5-14.8s-5.7-15-13.5-15-13.5,5.9-13.5,15S1392,1171.5,1399.8,1171.5Z" transform="translate(-1163.7 -1090.7)"/>
    <path class="a" d="M1462.3,1192.2l-24.2-71.3h28.1l11.5,44.3L1489,1121h27.3l-23.5,71.3h-30.5Z" transform="translate(-1163.7 -1090.7)"/>
    <path class="a" d="M1551.1,1119.2c23.5,0,35.9,14.6,35.9,39.6,0,1.5-.1,3.4-0.3,4.7h-44.5c1.3,5.5,5.9,8.6,12.4,8.6a16.6,16.6,0,0,0,12.8-6.3l17.8,12.4c-1.6,3.5-11.6,15.8-31,15.8-24.4,0-38.9-17.5-38.9-38.3S1529.3,1119.2,1551.1,1119.2Zm9.3,28.3a8.9,8.9,0,0,0-17.6,0h17.6Z" transform="translate(-1163.7 -1090.7)"/>
    <path class="a" d="M1619.3,1150l-29.3-52.2h30.1l12.6,28.5,13.1-28.5h29.6L1646,1150v42.3h-26.7V1150Z" transform="translate(-1163.7 -1090.7)"/>
    <path class="a" d="M1706.1,1194c-22.5,0-39.7-15.8-39.7-37.4s17.1-37.4,39.7-37.4,39.7,15.8,39.7,37.4S1728.7,1194,1706.1,1194Zm0-22.5c7.8,0,13.5-5.8,13.5-14.8s-5.7-15-13.5-15-13.5,5.9-13.5,15S1698.3,1171.5,1706.1,1171.5Z" transform="translate(-1163.7 -1090.7)"/>
    <path class="a" d="M1753.6,1166.9V1121h26.2v42c0,5.4,3.2,8,7.6,8s7.6-3.5,7.6-7.6V1121h26.2v71.3h-25.5v-6.7c-2.6,3.6-9,8.5-17.8,8.5C1760.9,1194,1753.6,1183.3,1753.6,1166.9Z" transform="translate(-1163.7 -1090.7)"/>
    <path class="a" d="M1834.2,1097.8h52.5v23.5h-25.6v13.2h22.3v23.4h-22.3v34.4h-26.9v-94.5Z" transform="translate(-1163.7 -1090.7)"/>
    <path class="a" d="M1909.1,1216.4l9.6-26.9-26.5-68.6h28.1l10.3,36.9,10.9-36.9h27.3l-35.1,95.4h-24.6Z" transform="translate(-1163.7 -1090.7)"/>
    <path class="a" d="M1988.7,1090.7c7.7,0,14,5.5,14,13.1s-6.3,13-14,13-13.9-5.5-13.9-13S1981,1090.7,1988.7,1090.7Zm-13.1,30.2h26.2v71.3h-26.2V1121Z" transform="translate(-1163.7 -1090.7)"/>
  </g>
  <path class="b" d="M1250.9,1098.8c13.4,3.7,22.2,16.3,21.4,30.5-1,17.7-15.4,28.4-29.3,38.7-10,7.4-19.4,14.4-22.8,23.3a2.3,2.3,0,0,1-2.1,1.5,2.2,2.2,0,0,1-2.1-1.5c-3.4-9.2-12.9-16.1-22.9-23.5-13.7-10.1-27.9-20.6-29.3-38.4-1.2-16,10.2-27.6,22.2-30.7,9.8-2.6,23.6-.2,32.1,14.2C1227.4,1098.4,1240.9,1096,1250.9,1098.8Z" transform="translate(-1163.7 -1090.7)"/>
</svg>
