<svg xmlns="http://www.w3.org/2000/svg" width="839" height="125.7" viewBox="0 0 839 125.7">
  <defs>
    <style>
      .a {
        fill: #f8f8f2;
      }

      .b {
        fill: #d33a2c;
      }
    </style>
  </defs>
  <title>3) loveyoufyi__text-slight-gray-heart-red</title>
  <g>
    <path class="a" d="M2568.1,1183.3h26.9v71h27.1v23.5h-54v-94.5Z" transform="translate(-2429.6 -1176.2)"/>
    <path class="a" d="M2665.7,1279.5c-22.5,0-39.7-15.8-39.7-37.4s17.1-37.4,39.7-37.4,39.7,15.8,39.7,37.4S2688.2,1279.5,2665.7,1279.5Zm0-22.5c7.8,0,13.5-5.8,13.5-14.8s-5.7-15-13.5-15-13.5,5.9-13.5,15S2657.8,1257,2665.7,1257Z" transform="translate(-2429.6 -1176.2)"/>
    <path class="a" d="M2728.2,1277.8l-24.2-71.3h28.1l11.5,44.3,11.3-44.3h27.3l-23.5,71.3h-30.5Z" transform="translate(-2429.6 -1176.2)"/>
    <path class="a" d="M2817,1204.7c23.5,0,35.9,14.6,35.9,39.6,0,1.5-.1,3.4-0.3,4.7h-44.5c1.3,5.5,5.9,8.6,12.4,8.6a16.6,16.6,0,0,0,12.8-6.3l17.8,12.4c-1.6,3.5-11.6,15.8-31,15.8-24.4,0-38.9-17.5-38.9-38.3S2795.1,1204.7,2817,1204.7Zm9.3,28.3a8.9,8.9,0,0,0-17.5,0h17.5Z" transform="translate(-2429.6 -1176.2)"/>
    <path class="a" d="M2885.2,1235.5l-29.3-52.2H2886l12.6,28.5,13.1-28.5h29.6l-29.3,52.2v42.3h-26.7v-42.3Z" transform="translate(-2429.6 -1176.2)"/>
    <path class="a" d="M2972,1279.5c-22.5,0-39.7-15.8-39.7-37.4s17.1-37.4,39.7-37.4,39.7,15.8,39.7,37.4S2994.5,1279.5,2972,1279.5Zm0-22.5c7.8,0,13.5-5.8,13.5-14.8s-5.7-15-13.5-15-13.5,5.9-13.5,15S2964.1,1257,2972,1257Z" transform="translate(-2429.6 -1176.2)"/>
    <path class="a" d="M3019.5,1252.4v-45.9h26.2v42c0,5.4,3.2,8,7.6,8s7.6-3.5,7.6-7.6v-42.4H3087v71.3h-25.5V1271c-2.6,3.6-9,8.5-17.8,8.5C3026.8,1279.5,3019.5,1268.8,3019.5,1252.4Z" transform="translate(-2429.6 -1176.2)"/>
    <path class="a" d="M3100.1,1183.3h52.5v23.5H3127V1220h22.3v23.4H3127v34.4h-26.9v-94.5Z" transform="translate(-2429.6 -1176.2)"/>
    <path class="a" d="M3175,1301.9l9.6-26.9-26.5-68.6h28.1l10.3,36.9,10.9-36.9h27.3l-35.1,95.4H3175Z" transform="translate(-2429.6 -1176.2)"/>
    <path class="a" d="M3254.5,1176.2c7.7,0,14,5.5,14,13.1s-6.3,13-14,13-13.9-5.5-13.9-13S3246.8,1176.2,3254.5,1176.2Zm-13.1,30.2h26.2v71.3h-26.2v-71.3Z" transform="translate(-2429.6 -1176.2)"/>
  </g>
  <path class="b" d="M2516.8,1184.3c13.4,3.7,22.2,16.3,21.4,30.5-1,17.7-15.4,28.4-29.3,38.7-10,7.4-19.4,14.4-22.8,23.3a2.3,2.3,0,0,1-2.1,1.5,2.2,2.2,0,0,1-2.1-1.5c-3.4-9.2-12.9-16.1-22.9-23.5-13.7-10.1-27.9-20.6-29.3-38.4-1.2-16,10.2-27.6,22.2-30.7,9.8-2.6,23.6-.2,32.1,14.2C2493.3,1183.9,2506.8,1181.5,2516.8,1184.3Z" transform="translate(-2429.6 -1176.2)"/>
</svg>
