<svg xmlns="http://www.w3.org/2000/svg" width="1039.7" height="96.3" viewBox="0 0 1039.7 96.3">
  <defs>
    <style>
      .a {
        fill: none;
      }

      .b {
        fill: #fff;
      }
    </style>
  </defs>
  <title>logo-heart-text-red-white</title>
  <rect class="a" width="1039.6" height="95"/>
  <g>
    <path class="b" d="M137.4,187.3h26.9v71h27.1v23.5h-54V187.3Z" transform="translate(1 -187.2)"/>
    <path class="b" d="M235,283.5c-22.5,0-39.7-15.8-39.7-37.4s17.1-37.4,39.7-37.4,39.7,15.8,39.7,37.4S257.6,283.5,235,283.5Zm0-22.5c7.8,0,13.5-5.8,13.5-14.8s-5.7-15-13.5-15-13.5,5.9-13.5,15S227.2,261,235,261Z" transform="translate(1 -187.2)"/>
    <path class="b" d="M297.6,281.7l-24.2-71.3h28.1l11.5,44.3,11.3-44.3h27.3l-23.5,71.3H297.6Z" transform="translate(1 -187.2)"/>
    <path class="b" d="M386.4,208.7c23.5,0,35.9,14.6,35.9,39.6,0,1.5-.1,3.4-0.3,4.7H377.5c1.3,5.5,5.9,8.6,12.4,8.6a16.6,16.6,0,0,0,12.8-6.3l17.8,12.4c-1.6,3.5-11.6,15.8-31,15.8-24.4,0-38.9-17.5-38.9-38.3S364.5,208.7,386.4,208.7Zm9.3,28.3a8.9,8.9,0,0,0-17.5,0h17.5Z" transform="translate(1 -187.2)"/>
    <path class="b" d="M454.6,239.5l-29.3-52.2h30.1l12.6,28.5L481,187.3h29.6l-29.3,52.2v42.3H454.6V239.5Z" transform="translate(1 -187.2)"/>
    <path class="b" d="M541.4,283.5c-22.5,0-39.7-15.8-39.7-37.4s17.1-37.4,39.7-37.4S581,224.5,581,246.1,563.9,283.5,541.4,283.5Zm0-22.5c7.8,0,13.5-5.8,13.5-14.8s-5.7-15-13.5-15-13.5,5.9-13.5,15S533.5,261,541.4,261Z" transform="translate(1 -187.2)"/>
    <path class="b" d="M588.9,256.4V210.5h26.2v42c0,5.4,3.2,8,7.6,8s7.6-3.5,7.6-7.6V210.5h26.2v71.3H630.9V275c-2.6,3.6-9,8.5-17.8,8.5C596.2,283.5,588.9,272.8,588.9,256.4Z" transform="translate(1 -187.2)"/>
    <path class="b" d="M669.5,187.3H722v23.5H696.3V224h22.3v23.4H696.3v34.4H669.5V187.3Z" transform="translate(1 -187.2)"/>
    <path class="b" d="M766.8,283.5c-22.5,0-39.7-15.8-39.7-37.4s17.1-37.4,39.7-37.4,39.7,15.8,39.7,37.4S789.4,283.5,766.8,283.5Zm0-22.5c7.8,0,13.5-5.8,13.5-14.8s-5.7-15-13.5-15-13.5,5.9-13.5,15S759,261,766.8,261Z" transform="translate(1 -187.2)"/>
    <path class="b" d="M858.9,234.2a15.7,15.7,0,0,0-4.2-.5c-8.8,0-13.6,5.5-13.6,14.8v33.2H814.9V210.5h25.5v9a20.7,20.7,0,0,1,18.5-10.8v25.5Z" transform="translate(1 -187.2)"/>
    <path class="b" d="M972.5,281.7H946.4V239.2c0-4.5-2.7-7.4-6.9-7.4s-6.5,3.2-6.5,7.4v42.5H906.9v-42c0-5-2.4-8-6.7-8s-6.5,2.4-6.5,7.6v42.4H867.5V210.5H893v6.8c2.4-3.8,7.7-8.5,17.3-8.5,7.8,0,13.9,3.1,18,8.4,4.3-4.9,10.7-8.4,19.8-8.4,16.2,0,24.4,12.3,24.4,27.1v45.9Z" transform="translate(1 -187.2)"/>
    <path class="b" d="M993.6,257.9a27.4,27.4,0,0,0,15.3,5c3.5,0,4.9-1.2,4.9-2.6,0-5.9-32.1-3.4-32.1-28.5,0-14,12.7-23.1,29.2-23.1,13.2,0,21.9,5.9,26.9,11.7l-16.9,13.4c-2.6-2.3-5.9-4.6-10.5-4.6-2.8,0-4,1.2-4,2.4,0,7,32.5,4.2,32.5,27.8,0,15.8-12.3,24-29.7,24-13.4,0-25.1-5.9-29.7-11.3Z" transform="translate(1 -187.2)"/>
  </g>
  <path class="b" d="M86.2,188.3c13.4,3.7,22.2,16.3,21.4,30.5-1,17.7-15.4,28.4-29.3,38.7-10,7.4-19.4,14.4-22.8,23.3a2.3,2.3,0,0,1-2.1,1.5,2.2,2.2,0,0,1-2.1-1.5c-3.4-9.2-12.9-16.1-22.9-23.5C14.6,247.2.5,236.7-.9,218.8c-1.2-16,10.2-27.6,22.2-30.7,9.8-2.6,23.6-.2,32.1,14.2C62.7,187.9,76.2,185.5,86.2,188.3Z" transform="translate(1 -187.2)"/>
</svg>
