<svg xmlns="http://www.w3.org/2000/svg" width="839" height="125.7" viewBox="0 0 839 125.7">
  <defs>
    <style>
      .a {
        fill: #d33a2c;
      }
    </style>
  </defs>
  <title>3) loveyoufyi__heart-text-red-black</title>
  <g>
    <path d="M1304.9,26.8h26.9v71h27.1v23.5h-54V26.8Z" transform="translate(-1166.4 -19.7)"/>
    <path d="M1402.5,123c-22.5,0-39.7-15.8-39.7-37.4s17.1-37.4,39.7-37.4,39.7,15.8,39.7,37.4S1425,123,1402.5,123Zm0-22.5c7.8,0,13.5-5.8,13.5-14.8s-5.7-15-13.5-15-13.5,5.9-13.5,15S1394.7,100.5,1402.5,100.5Z" transform="translate(-1166.4 -19.7)"/>
    <path d="M1465,121.2L1440.8,50h28.1l11.5,44.3L1491.7,50H1519l-23.5,71.3H1465Z" transform="translate(-1166.4 -19.7)"/>
    <path d="M1553.8,48.2c23.5,0,35.9,14.6,35.9,39.6,0,1.5-.1,3.4-0.3,4.7h-44.5c1.3,5.5,5.9,8.6,12.4,8.6a16.6,16.6,0,0,0,12.8-6.3l17.8,12.4c-1.6,3.5-11.6,15.8-31,15.8-24.4,0-38.9-17.5-38.9-38.3S1532,48.2,1553.8,48.2Zm9.3,28.3a8.9,8.9,0,0,0-17.5,0h17.5Z" transform="translate(-1166.4 -19.7)"/>
    <path d="M1622,79l-29.3-52.2h30.1l12.6,28.5,13.1-28.5H1678L1648.7,79v42.3H1622V79Z" transform="translate(-1166.4 -19.7)"/>
    <path d="M1708.8,123c-22.5,0-39.7-15.8-39.7-37.4s17.1-37.4,39.7-37.4,39.7,15.8,39.7,37.4S1731.3,123,1708.8,123Zm0-22.5c7.8,0,13.5-5.8,13.5-14.8s-5.7-15-13.5-15-13.5,5.9-13.5,15S1701,100.5,1708.8,100.5Z" transform="translate(-1166.4 -19.7)"/>
    <path d="M1756.3,95.9V50h26.2V92c0,5.4,3.2,8,7.6,8s7.6-3.5,7.6-7.6V50h26.2v71.3h-25.5v-6.7c-2.6,3.6-9,8.5-17.8,8.5C1763.6,123,1756.3,112.3,1756.3,95.9Z" transform="translate(-1166.4 -19.7)"/>
    <path d="M1836.9,26.8h52.5V50.2h-25.6V63.5h22.3V86.8h-22.3v34.4h-26.9V26.8Z" transform="translate(-1166.4 -19.7)"/>
    <path d="M1911.8,145.4l9.6-26.9L1895,50H1923l10.3,36.9L1944.2,50h27.3l-35.1,95.4h-24.6Z" transform="translate(-1166.4 -19.7)"/>
    <path d="M1991.4,19.7c7.7,0,14,5.5,14,13.1s-6.3,13-14,13-13.9-5.5-13.9-13S1983.7,19.7,1991.4,19.7ZM1978.3,50h26.2v71.3h-26.2V50Z" transform="translate(-1166.4 -19.7)"/>
  </g>
  <path class="a" d="M1253.6,27.8c13.4,3.7,22.2,16.3,21.4,30.5-1,17.7-15.4,28.4-29.3,38.7-10,7.4-19.4,14.4-22.8,23.3a2.3,2.3,0,0,1-2.1,1.5,2.2,2.2,0,0,1-2.1-1.5c-3.4-9.2-12.9-16.1-22.9-23.5-13.7-10.1-27.9-20.6-29.3-38.4-1.2-16,10.2-27.6,22.2-30.7,9.8-2.6,23.6-.2,32.1,14.2C1230.1,27.4,1243.6,25,1253.6,27.8Z" transform="translate(-1166.4 -19.7)"/>
</svg>
