<svg xmlns="http://www.w3.org/2000/svg" width="846.8" height="125.7" viewBox="0 0 846.8 125.7">
  <defs>
    <style>
      .a {
        fill: #fff;
      }

      .b {
        fill: #202124;
      }
    </style>
  </defs>
  <title>3) loveyoufyi__text-white-white-heart</title>
  <g>
    <path class="a" d="M1632.9,1359.9h26.9v71h27.1v23.5h-54v-94.5Z" transform="translate(-1486.6 -1352.9)"/>
    <path class="a" d="M1730.5,1456.2c-22.5,0-39.7-15.8-39.7-37.4s17.1-37.4,39.7-37.4,39.7,15.8,39.7,37.4S1753,1456.2,1730.5,1456.2Zm0-22.5c7.8,0,13.5-5.8,13.5-14.8s-5.7-15-13.5-15-13.5,5.9-13.5,15S1722.7,1433.6,1730.5,1433.6Z" transform="translate(-1486.6 -1352.9)"/>
    <path class="a" d="M1793,1454.4l-24.2-71.3h28.1l11.5,44.3,11.3-44.3H1847l-23.5,71.3H1793Z" transform="translate(-1486.6 -1352.9)"/>
    <path class="a" d="M1881.8,1381.4c23.5,0,35.9,14.6,35.9,39.6,0,1.5-.1,3.4-0.3,4.7h-44.5c1.3,5.5,5.9,8.6,12.4,8.6a16.6,16.6,0,0,0,12.8-6.3l17.8,12.4c-1.6,3.5-11.6,15.8-31,15.8-24.4,0-38.9-17.5-38.9-38.3S1860,1381.4,1881.8,1381.4Zm9.3,28.3a8.9,8.9,0,0,0-17.5,0h17.5Z" transform="translate(-1486.6 -1352.9)"/>
    <path class="a" d="M1950,1412.2l-29.3-52.2h30.1l12.6,28.5,13.1-28.5H2006l-29.3,52.2v42.3H1950v-42.3Z" transform="translate(-1486.6 -1352.9)"/>
    <path class="a" d="M2036.8,1456.2c-22.5,0-39.7-15.8-39.7-37.4s17.1-37.4,39.7-37.4,39.7,15.8,39.7,37.4S2059.3,1456.2,2036.8,1456.2Zm0-22.5c7.8,0,13.5-5.8,13.5-14.8s-5.7-15-13.5-15-13.5,5.9-13.5,15S2029,1433.6,2036.8,1433.6Z" transform="translate(-1486.6 -1352.9)"/>
    <path class="a" d="M2084.3,1429.1v-45.9h26.2v42c0,5.4,3.2,8,7.6,8s7.6-3.5,7.6-7.6v-42.4h26.2v71.3h-25.5v-6.7c-2.6,3.6-9,8.5-17.8,8.5C2091.6,1456.2,2084.3,1445.5,2084.3,1429.1Z" transform="translate(-1486.6 -1352.9)"/>
    <path class="a" d="M2164.9,1359.9h52.5v23.5h-25.6v13.2h22.3V1420h-22.3v34.4h-26.9v-94.5Z" transform="translate(-1486.6 -1352.9)"/>
    <path class="a" d="M2239.8,1478.6l9.6-26.9-26.5-68.6H2251l10.3,36.9,10.9-36.9h27.3l-35.1,95.4h-24.6Z" transform="translate(-1486.6 -1352.9)"/>
    <path class="a" d="M2319.4,1352.9c7.7,0,14,5.5,14,13.1s-6.3,13-14,13-13.9-5.5-13.9-13S2311.7,1352.9,2319.4,1352.9Zm-13.1,30.2h26.2v71.3h-26.2v-71.3Z" transform="translate(-1486.6 -1352.9)"/>
  </g>
  <g>
    <path class="a" d="M1583.5,1361c14.9,3.7,24.6,16.3,23.7,30.5-1.1,17.7-17.1,28.4-32.6,38.7-11.1,7.4-21.5,14.4-25.3,23.3a2.5,2.5,0,0,1-2.4,1.5,2.5,2.5,0,0,1-2.3-1.5c-3.8-9.2-14.3-16.1-25.4-23.5-15.2-10.1-31-20.6-32.5-38.4-1.4-16,11.4-27.6,24.6-30.7,10.9-2.6,26.3-.2,35.7,14.2C1557.3,1360.6,1572.3,1358.2,1583.5,1361Z" transform="translate(-1486.6 -1352.9)"/>
    <path class="b" d="M1570.8,1377.1c9.7,2.4,16.1,10.6,15.5,19.9-0.7,11.6-11.2,18.5-21.3,25.3-7.2,4.8-14.1,9.4-16.5,15.2a1.7,1.7,0,0,1-1.5,1,1.6,1.6,0,0,1-1.5-1c-2.5-6-9.3-10.5-16.6-15.3-9.9-6.6-20.2-13.4-21.2-25.1s7.4-18,16.1-20a21.6,21.6,0,0,1,23.3,9.3C1553.7,1376.9,1563.5,1375.3,1570.8,1377.1Z" transform="translate(-1486.6 -1352.9)"/>
  </g>
</svg>
