<svg xmlns="http://www.w3.org/2000/svg" width="830.2" height="125.7" viewBox="0 0 830.2 125.7">
  <defs>
    <style>
      .a {
        fill: #fff;
      }
    </style>
  </defs>
  <title>3) loveyoufyi__AT-loveyoufyi-white</title>
  <g>
    <path class="a" d="M1225.4,927.7c6.5,0,10.9,2.8,12.3,4.2v-3.4h18.9v29.8c0,4.6,2.2,6.6,5.7,6.6,5.3,0,8.2-6.7,8.2-16.9,0-21.5-15-34.3-40-34.3s-40.9,16.9-40.9,39.8,16.2,39.3,42.1,39.3c10,0,20.4-2.4,27.1-7l8.2,13c-8.8,5.8-21.1,10-35.4,10-37,0-60.9-22-60.9-54.5,0-34.2,26.9-56.3,60.1-56.3,35.6,0,57.5,21.7,57.5,49.1,0,20-10.7,33.6-27.8,33.6-7.4,0-14-3.1-17.3-8.1-2.2,3.4-7.6,8.2-17.1,8.2-15.4,0-25-11.3-25-26.6S1210.4,927.7,1225.4,927.7Zm4.3,35.9c4.9,0,8.4-3.8,8.4-9.4s-3.1-9.2-8.2-9.2-8.5,3.9-8.5,9.2S1224.6,963.6,1229.8,963.6Z" transform="translate(-1170.9 -887.8)"/>
    <path class="a" d="M1300.6,894.8h26.9v71h27.1v23.5h-54V894.8Z" transform="translate(-1170.9 -887.8)"/>
    <path class="a" d="M1398.2,991c-22.5,0-39.7-15.8-39.7-37.4s17.1-37.4,39.7-37.4,39.7,15.8,39.7,37.4S1420.8,991,1398.2,991Zm0-22.5c7.8,0,13.5-5.8,13.5-14.8s-5.7-15-13.5-15-13.5,5.9-13.5,15S1390.4,968.5,1398.2,968.5Z" transform="translate(-1170.9 -887.8)"/>
    <path class="a" d="M1460.7,989.3L1436.6,918h28.1l11.5,44.3,11.3-44.3h27.3l-23.5,71.3h-30.5Z" transform="translate(-1170.9 -887.8)"/>
    <path class="a" d="M1549.6,916.3c23.5,0,35.9,14.6,35.9,39.6,0,1.5-.1,3.4-0.3,4.7h-44.5c1.3,5.5,5.9,8.6,12.4,8.6a16.6,16.6,0,0,0,12.8-6.3l17.8,12.4c-1.6,3.5-11.6,15.8-31,15.8-24.4,0-38.9-17.5-38.9-38.3S1527.7,916.3,1549.6,916.3Zm9.3,28.3a8.9,8.9,0,0,0-17.5,0h17.5Z" transform="translate(-1170.9 -887.8)"/>
    <path class="a" d="M1617.7,947l-29.3-52.2h30.1l12.6,28.5,13.1-28.5h29.6L1644.5,947v42.3h-26.7V947Z" transform="translate(-1170.9 -887.8)"/>
    <path class="a" d="M1704.5,991c-22.5,0-39.7-15.8-39.7-37.4s17.1-37.4,39.7-37.4,39.7,15.8,39.7,37.4S1727.1,991,1704.5,991Zm0-22.5c7.8,0,13.5-5.8,13.5-14.8s-5.7-15-13.5-15-13.5,5.9-13.5,15S1696.7,968.5,1704.5,968.5Z" transform="translate(-1170.9 -887.8)"/>
    <path class="a" d="M1752.1,963.9V918h26.2v42c0,5.4,3.2,8,7.6,8s7.6-3.5,7.6-7.6V918h26.2v71.3H1794v-6.7c-2.6,3.6-9,8.5-17.8,8.5C1759.4,991,1752.1,980.4,1752.1,963.9Z" transform="translate(-1170.9 -887.8)"/>
    <path class="a" d="M1832.7,894.8h52.5v23.5h-25.7v13.2h22.3v23.4h-22.3v34.4h-26.9V894.8Z" transform="translate(-1170.9 -887.8)"/>
    <path class="a" d="M1907.6,1013.5l9.6-26.9L1890.7,918h28.1l10.3,36.9L1940,918h27.3l-35.1,95.4h-24.6Z" transform="translate(-1170.9 -887.8)"/>
    <path class="a" d="M1987.1,887.8c7.7,0,14,5.5,14,13.1s-6.3,13-14,13-13.9-5.5-13.9-13S1979.4,887.8,1987.1,887.8ZM1974,918h26.2v71.3H1974V918Z" transform="translate(-1170.9 -887.8)"/>
  </g>
</svg>
