<svg xmlns="http://www.w3.org/2000/svg" width="901.3" height="96.3" viewBox="0 0 901.3 96.3">
  <title>3) logo-text-black</title>
  <g>
    <path d="M80.4,338.3h26.9v71h27.1v23.5h-54V338.3Z" transform="translate(-80.4 -338.3)"/>
    <path d="M178,434.5c-22.5,0-39.7-15.8-39.7-37.4s17.1-37.4,39.7-37.4,39.7,15.8,39.7,37.4S200.6,434.5,178,434.5Zm0-22.5c7.8,0,13.5-5.8,13.5-14.8s-5.7-15-13.5-15-13.5,5.9-13.5,15S170.2,412,178,412Z" transform="translate(-80.4 -338.3)"/>
    <path d="M240.6,432.7l-24.2-71.3h28.1l11.5,44.3,11.3-44.3h27.3l-23.5,71.3H240.6Z" transform="translate(-80.4 -338.3)"/>
    <path d="M329.4,359.7c23.5,0,35.9,14.6,35.9,39.6,0,1.5-.1,3.4-0.3,4.7H320.5c1.3,5.5,5.9,8.6,12.4,8.6a16.6,16.6,0,0,0,12.8-6.3l17.8,12.4c-1.6,3.5-11.6,15.8-31,15.8-24.4,0-38.9-17.5-38.9-38.3S307.5,359.7,329.4,359.7Zm9.3,28.3a8.9,8.9,0,0,0-17.5,0h17.5Z" transform="translate(-80.4 -338.3)"/>
    <path d="M397.6,390.5l-29.3-52.2h30.1l12.6,28.5L424,338.3h29.6l-29.3,52.2v42.3H397.6V390.5Z" transform="translate(-80.4 -338.3)"/>
    <path d="M484.4,434.5c-22.5,0-39.7-15.8-39.7-37.4s17.1-37.4,39.7-37.4S524,375.5,524,397.1,506.9,434.5,484.4,434.5Zm0-22.5c7.8,0,13.5-5.8,13.5-14.8s-5.7-15-13.5-15-13.5,5.9-13.5,15S476.5,412,484.4,412Z" transform="translate(-80.4 -338.3)"/>
    <path d="M531.9,407.4V361.5h26.2v42c0,5.4,3.2,8,7.6,8s7.6-3.5,7.6-7.6V361.5h26.2v71.3H573.9V426c-2.6,3.6-9,8.5-17.8,8.5C539.2,434.5,531.9,423.8,531.9,407.4Z" transform="translate(-80.4 -338.3)"/>
    <path d="M612.5,338.3H665v23.5H639.3V375h22.3v23.4H639.3v34.4H612.5V338.3Z" transform="translate(-80.4 -338.3)"/>
    <path d="M709.8,434.5c-22.5,0-39.7-15.8-39.7-37.4s17.1-37.4,39.7-37.4,39.7,15.8,39.7,37.4S732.4,434.5,709.8,434.5Zm0-22.5c7.8,0,13.5-5.8,13.5-14.8s-5.7-15-13.5-15-13.5,5.9-13.5,15S702,412,709.8,412Z" transform="translate(-80.4 -338.3)"/>
    <path d="M801.9,385.2a15.7,15.7,0,0,0-4.2-.5c-8.8,0-13.6,5.5-13.6,14.8v33.2H757.9V361.5h25.5v9a20.7,20.7,0,0,1,18.5-10.8v25.5Z" transform="translate(-80.4 -338.3)"/>
    <path d="M915.5,432.7H889.4V390.2c0-4.5-2.7-7.4-6.9-7.4s-6.5,3.2-6.5,7.4v42.5H849.9v-42c0-5-2.4-8-6.7-8s-6.5,2.4-6.5,7.6v42.4H810.5V361.5H836v6.8c2.4-3.8,7.7-8.5,17.3-8.5,7.8,0,13.9,3.1,18,8.4,4.3-4.9,10.7-8.4,19.8-8.4,16.2,0,24.4,12.3,24.4,27.1v45.9Z" transform="translate(-80.4 -338.3)"/>
    <path d="M936.6,408.9a27.4,27.4,0,0,0,15.3,5c3.5,0,4.9-1.2,4.9-2.6,0-5.9-32.1-3.4-32.1-28.5,0-14,12.7-23.1,29.2-23.1,13.2,0,21.9,5.9,26.9,11.7l-16.9,13.4c-2.6-2.3-5.9-4.6-10.5-4.6-2.8,0-4,1.2-4,2.4,0,7,32.5,4.2,32.5,27.8,0,15.8-12.3,24-29.7,24-13.4,0-25.1-5.9-29.7-11.3Z" transform="translate(-80.4 -338.3)"/>
  </g>
</svg>
