<svg xmlns="http://www.w3.org/2000/svg" width="700.5" height="125.7" viewBox="0 0 700.5 125.7">
  <defs>
    <style>
      .a {
        fill: #d33a2c;
      }
    </style>
  </defs>
  <title>3) loveyoufyi__text-red</title>
  <g>
    <path class="a" d="M1236.9,676.8h26.9v71h27.1v23.5h-54V676.8Z" transform="translate(-1236.9 -669.7)"/>
    <path class="a" d="M1334.5,773c-22.5,0-39.7-15.8-39.7-37.4s17.1-37.4,39.7-37.4,39.7,15.8,39.7,37.4S1357,773,1334.5,773Zm0-22.5c7.8,0,13.5-5.8,13.5-14.8s-5.7-15-13.5-15-13.5,5.9-13.5,15S1326.7,750.5,1334.5,750.5Z" transform="translate(-1236.9 -669.7)"/>
    <path class="a" d="M1397,771.2L1372.8,700h28.1l11.5,44.3,11.3-44.3H1451l-23.5,71.3H1397Z" transform="translate(-1236.9 -669.7)"/>
    <path class="a" d="M1485.8,698.2c23.5,0,35.9,14.6,35.9,39.6,0,1.5-.1,3.4-0.3,4.7h-44.5c1.3,5.5,5.9,8.6,12.4,8.6a16.6,16.6,0,0,0,12.8-6.3l17.8,12.4c-1.6,3.5-11.6,15.8-31,15.8-24.4,0-38.9-17.5-38.9-38.3S1464,698.2,1485.8,698.2Zm9.3,28.3a8.9,8.9,0,0,0-17.5,0h17.5Z" transform="translate(-1236.9 -669.7)"/>
    <path class="a" d="M1554,729l-29.3-52.2h30.1l12.6,28.5,13.1-28.5H1610L1580.7,729v42.3H1554V729Z" transform="translate(-1236.9 -669.7)"/>
    <path class="a" d="M1640.8,773c-22.5,0-39.7-15.8-39.7-37.4s17.1-37.4,39.7-37.4,39.7,15.8,39.7,37.4S1663.3,773,1640.8,773Zm0-22.5c7.8,0,13.5-5.8,13.5-14.8s-5.7-15-13.5-15-13.5,5.9-13.5,15S1633,750.5,1640.8,750.5Z" transform="translate(-1236.9 -669.7)"/>
    <path class="a" d="M1688.3,745.9V700h26.2v42c0,5.4,3.2,8,7.6,8s7.6-3.5,7.6-7.6V700h26.2v71.3h-25.5v-6.7c-2.6,3.6-9,8.5-17.8,8.5C1695.6,773,1688.3,762.3,1688.3,745.9Z" transform="translate(-1236.9 -669.7)"/>
    <path class="a" d="M1768.9,676.8h52.5v23.5h-25.6v13.2h22.3v23.4h-22.3v34.4h-26.9V676.8Z" transform="translate(-1236.9 -669.7)"/>
    <path class="a" d="M1843.8,795.4l9.6-26.9L1827,700H1855l10.3,36.9,10.9-36.9h27.3l-35.1,95.4h-24.6Z" transform="translate(-1236.9 -669.7)"/>
    <path class="a" d="M1923.4,669.7c7.7,0,14,5.5,14,13.1s-6.3,13-14,13-13.9-5.5-13.9-13S1915.7,669.7,1923.4,669.7ZM1910.3,700h26.2v71.3h-26.2V700Z" transform="translate(-1236.9 -669.7)"/>
  </g>
</svg>
