<svg xmlns="http://www.w3.org/2000/svg" width="700.5" height="125.7" viewBox="0 0 700.5 125.7">
  <defs>
    <style>
      .a {
        fill: #fff;
      }
    </style>
  </defs>
  <title>3) loveyoufyi__text-white</title>
  <g>
    <path class="a" d="M1246.9,517.8h26.9v71h27.1v23.5h-54V517.8Z" transform="translate(-1246.9 -510.7)"/>
    <path class="a" d="M1344.5,614c-22.5,0-39.7-15.8-39.7-37.4s17.1-37.4,39.7-37.4,39.7,15.8,39.7,37.4S1367,614,1344.5,614Zm0-22.5c7.8,0,13.5-5.8,13.5-14.8s-5.7-15-13.5-15-13.5,5.9-13.5,15S1336.7,591.5,1344.5,591.5Z" transform="translate(-1246.9 -510.7)"/>
    <path class="a" d="M1407,612.2L1382.8,541h28.1l11.5,44.3,11.3-44.3H1461l-23.5,71.3H1407Z" transform="translate(-1246.9 -510.7)"/>
    <path class="a" d="M1495.8,539.2c23.5,0,35.9,14.6,35.9,39.6,0,1.5-.1,3.4-0.3,4.7h-44.5c1.3,5.5,5.9,8.6,12.4,8.6a16.6,16.6,0,0,0,12.8-6.3l17.8,12.4c-1.6,3.5-11.6,15.8-31,15.8-24.4,0-38.9-17.5-38.9-38.3S1474,539.2,1495.8,539.2Zm9.3,28.3a8.9,8.9,0,0,0-17.5,0h17.5Z" transform="translate(-1246.9 -510.7)"/>
    <path class="a" d="M1564,570l-29.3-52.2h30.1l12.6,28.5,13.1-28.5H1620L1590.7,570v42.3H1564V570Z" transform="translate(-1246.9 -510.7)"/>
    <path class="a" d="M1650.8,614c-22.5,0-39.7-15.8-39.7-37.4s17.1-37.4,39.7-37.4,39.7,15.8,39.7,37.4S1673.3,614,1650.8,614Zm0-22.5c7.8,0,13.5-5.8,13.5-14.8s-5.7-15-13.5-15-13.5,5.9-13.5,15S1643,591.5,1650.8,591.5Z" transform="translate(-1246.9 -510.7)"/>
    <path class="a" d="M1698.3,586.9V541h26.2v42c0,5.4,3.2,8,7.6,8s7.6-3.5,7.6-7.6V541h26.2v71.3h-25.5v-6.7c-2.6,3.6-9,8.5-17.8,8.5C1705.6,614,1698.3,603.3,1698.3,586.9Z" transform="translate(-1246.9 -510.7)"/>
    <path class="a" d="M1778.9,517.8h52.5v23.5h-25.6v13.2h22.3v23.4h-22.3v34.4h-26.9V517.8Z" transform="translate(-1246.9 -510.7)"/>
    <path class="a" d="M1853.8,636.4l9.6-26.9L1837,541H1865l10.3,36.9,10.9-36.9h27.3l-35.1,95.4h-24.6Z" transform="translate(-1246.9 -510.7)"/>
    <path class="a" d="M1933.4,510.7c7.7,0,14,5.5,14,13.1s-6.3,13-14,13-13.9-5.5-13.9-13S1925.7,510.7,1933.4,510.7ZM1920.3,541h26.2v71.3h-26.2V541Z" transform="translate(-1246.9 -510.7)"/>
  </g>
</svg>
