<svg xmlns="http://www.w3.org/2000/svg" width="1171" height="103.3" viewBox="0 0 1171 103.3">
  <defs>
    <style>
      .a {
        fill: #fff;
      }
    </style>
  </defs>
  <title>nils-erik-hendrick-name-white</title>
  <g>
    <path class="a" d="M2137.9,202.4h27.4l30.4,53.6V202.4h26.5v94.5h-26.7l-31.2-52.8v52.8h-26.3V202.4Z" transform="translate(-2137.9 -195.4)"/>
    <path class="a" d="M2249,195.4c7.7,0,14,5.5,14,13.1s-6.3,13-14,13-13.9-5.5-13.9-13S2241.3,195.4,2249,195.4Zm-13.1,30.2h26.2v71.3h-26.2V225.6Z" transform="translate(-2137.9 -195.4)"/>
    <path class="a" d="M2274,199.3h26.2v97.6H2274V199.3Z" transform="translate(-2137.9 -195.4)"/>
    <path class="a" d="M2321.8,273a27.4,27.4,0,0,0,15.3,5c3.5,0,4.9-1.2,4.9-2.6,0-5.9-32.1-3.4-32.1-28.5,0-14,12.7-23.1,29.2-23.1,13.2,0,21.9,5.9,26.9,11.7l-16.9,13.4c-2.6-2.3-5.9-4.6-10.5-4.6-2.8,0-4,1.2-4,2.4,0,7,32.5,4.2,32.5,27.8,0,15.8-12.3,24-29.7,24-13.4,0-25.1-5.9-29.7-11.3Z" transform="translate(-2137.9 -195.4)"/>
    <path class="a" d="M2413.3,248.9c-8.4,0-15.5-5.5-15.5-16.3,0-14.7,7.6-28.8,19.4-36.4l10,11.1c-4.2,2.7-9.3,8-10.5,12a14.9,14.9,0,0,1,11.9,14.6A15,15,0,0,1,2413.3,248.9Z" transform="translate(-2137.9 -195.4)"/>
    <path class="a" d="M2438.9,202.4h52.9v23.5h-26.1v11.6h22v23.4h-22v12.6h27.1v23.5h-54V202.4Z" transform="translate(-2137.9 -195.4)"/>
    <path class="a" d="M2548.3,249.3a15.8,15.8,0,0,0-4.2-.5c-8.8,0-13.6,5.5-13.6,14.8v33.2h-26.2V225.6h25.5v9a20.7,20.7,0,0,1,18.5-10.8v25.5Z" transform="translate(-2137.9 -195.4)"/>
    <path class="a" d="M2570,195.4c7.7,0,14,5.5,14,13.1s-6.3,13-14,13-13.9-5.5-13.9-13S2562.3,195.4,2570,195.4Zm-13.1,30.2h26.2v71.3h-26.2V225.6Z" transform="translate(-2137.9 -195.4)"/>
    <path class="a" d="M2595,199.3h26.2v54l16.7-27.7h29.3l-22.7,32.8,24.6,38.5h-30.8l-17.1-31.5v31.5H2595V199.3Z" transform="translate(-2137.9 -195.4)"/>
    <path class="a" d="M2686.7,196.2c8.4,0,15.5,5.5,15.5,16.3,0,14.7-7.6,28.8-19.4,36.4l-10-11.1c4.2-2.7,9.3-8,10.5-12a14.9,14.9,0,0,1-11.9-14.6A15,15,0,0,1,2686.7,196.2Z" transform="translate(-2137.9 -195.4)"/>
    <path class="a" d="M2739.6,202.4h26.9v35.5h30V202.4h26.9v94.5h-26.9V261.5h-30v35.4h-26.9V202.4Z" transform="translate(-2137.9 -195.4)"/>
    <path class="a" d="M2869.4,223.8c23.5,0,35.9,14.6,35.9,39.6,0,1.5-.1,3.4-0.3,4.7h-44.5c1.3,5.5,5.9,8.6,12.4,8.6a16.6,16.6,0,0,0,12.8-6.3l17.8,12.4c-1.6,3.5-11.6,15.8-31,15.8-24.4,0-38.9-17.5-38.9-38.3S2847.6,223.8,2869.4,223.8Zm9.3,28.3a8.9,8.9,0,0,0-17.5,0h17.5Z" transform="translate(-2137.9 -195.4)"/>
    <path class="a" d="M2980.9,251v45.9h-26.2v-42c0-5.4-3.2-8-7.6-8s-7.6,3.5-7.6,7.6v42.4h-26.2V225.6H2939v6.8c2.6-3.6,9-8.5,17.8-8.5C2973.7,223.8,2980.9,234.5,2980.9,251Z" transform="translate(-2137.9 -195.4)"/>
    <path class="a" d="M3066.7,296.9h-24.3v-4.6c-2.7,2.7-8.9,6.3-18.2,6.3-20.8,0-35.4-15.5-35.4-37.4s13-37.4,33.6-37.4a28.6,28.6,0,0,1,18.1,6.2V199.3h26.2v97.6Zm-38.5-50.6c-8.4,0-13.2,6.2-13.2,15s5,14.8,13.2,14.8,13.1-6.7,13.1-14.8S3036,246.2,3028.2,246.2Z" transform="translate(-2137.9 -195.4)"/>
    <path class="a" d="M3122.4,249.3a15.8,15.8,0,0,0-4.2-.5c-8.8,0-13.6,5.5-13.6,14.8v33.2h-26.2V225.6h25.5v9a20.7,20.7,0,0,1,18.5-10.8v25.5Z" transform="translate(-2137.9 -195.4)"/>
    <path class="a" d="M3144.2,195.4c7.7,0,14,5.5,14,13.1s-6.3,13-14,13-13.9-5.5-13.9-13S3136.5,195.4,3144.2,195.4Zm-13.1,30.2h26.2v71.3h-26.2V225.6Z" transform="translate(-2137.9 -195.4)"/>
    <path class="a" d="M3218.9,251.1a20.5,20.5,0,0,0-12.6-4.3c-9.7,0-14.7,6.8-14.7,14.6s6.6,14.7,15.7,14.7a21.4,21.4,0,0,0,11.9-3.8l6.8,20.9c-5.5,3.6-13.1,5.4-20.9,5.4-23.5,0-39.4-15.4-39.4-37.3s17.1-37.5,39.7-37.5c8.4,0,15.9,2.4,20.5,5.7Z" transform="translate(-2137.9 -195.4)"/>
    <path class="a" d="M3234.7,199.3h26.2v54l16.7-27.7H3307l-22.7,32.8,24.6,38.5h-30.8l-17.1-31.5v31.5h-26.2V199.3Z" transform="translate(-2137.9 -195.4)"/>
  </g>
</svg>
