<svg xmlns="http://www.w3.org/2000/svg" width="901.3" height="96.3" viewBox="0 0 901.3 96.3">
  <defs>
    <style>
      .a {
        fill: #d33a2c;
      }
    </style>
  </defs>
  <title>3) logo__text-red</title>
  <g>
    <path class="a" d="M70.4,670.3H97.3v71h27.1v23.5h-54V670.3Z" transform="translate(-70.4 -670.3)"/>
    <path class="a" d="M168,766.5c-22.5,0-39.7-15.8-39.7-37.4s17.1-37.4,39.7-37.4,39.7,15.8,39.7,37.4S190.6,766.5,168,766.5Zm0-22.5c7.8,0,13.5-5.8,13.5-14.8s-5.7-15-13.5-15-13.5,5.9-13.5,15S160.2,744,168,744Z" transform="translate(-70.4 -670.3)"/>
    <path class="a" d="M230.6,764.7l-24.2-71.3h28.1l11.5,44.3,11.3-44.3h27.3l-23.5,71.3H230.6Z" transform="translate(-70.4 -670.3)"/>
    <path class="a" d="M319.4,691.7c23.5,0,35.9,14.6,35.9,39.6,0,1.5-.1,3.4-0.3,4.7H310.5c1.3,5.5,5.9,8.6,12.4,8.6a16.6,16.6,0,0,0,12.8-6.3l17.8,12.4c-1.6,3.5-11.6,15.8-31,15.8-24.4,0-38.9-17.5-38.9-38.3S297.5,691.7,319.4,691.7Zm9.3,28.3a8.9,8.9,0,0,0-17.5,0h17.5Z" transform="translate(-70.4 -670.3)"/>
    <path class="a" d="M387.6,722.5l-29.3-52.2h30.1l12.6,28.5L414,670.3h29.6l-29.3,52.2v42.3H387.6V722.5Z" transform="translate(-70.4 -670.3)"/>
    <path class="a" d="M474.4,766.5c-22.5,0-39.7-15.8-39.7-37.4s17.1-37.4,39.7-37.4S514,707.5,514,729.1,496.9,766.5,474.4,766.5Zm0-22.5c7.8,0,13.5-5.8,13.5-14.8s-5.7-15-13.5-15-13.5,5.9-13.5,15S466.5,744,474.4,744Z" transform="translate(-70.4 -670.3)"/>
    <path class="a" d="M521.9,739.4V693.5h26.2v42c0,5.4,3.2,8,7.6,8s7.6-3.5,7.6-7.6V693.5h26.2v71.3H563.9V758c-2.6,3.6-9,8.5-17.8,8.5C529.2,766.5,521.9,755.8,521.9,739.4Z" transform="translate(-70.4 -670.3)"/>
    <path class="a" d="M602.5,670.3H655v23.5H629.3V707h22.3v23.4H629.3v34.4H602.5V670.3Z" transform="translate(-70.4 -670.3)"/>
    <path class="a" d="M699.8,766.5c-22.5,0-39.7-15.8-39.7-37.4s17.1-37.4,39.7-37.4,39.7,15.8,39.7,37.4S722.4,766.5,699.8,766.5Zm0-22.5c7.8,0,13.5-5.8,13.5-14.8s-5.7-15-13.5-15-13.5,5.9-13.5,15S692,744,699.8,744Z" transform="translate(-70.4 -670.3)"/>
    <path class="a" d="M791.9,717.2a15.7,15.7,0,0,0-4.2-.5c-8.8,0-13.6,5.5-13.6,14.8v33.2H747.9V693.5h25.5v9a20.7,20.7,0,0,1,18.5-10.8v25.5Z" transform="translate(-70.4 -670.3)"/>
    <path class="a" d="M905.5,764.7H879.4V722.2c0-4.5-2.7-7.4-6.9-7.4s-6.5,3.2-6.5,7.4v42.5H839.9v-42c0-5-2.4-8-6.7-8s-6.5,2.4-6.5,7.6v42.4H800.5V693.5H826v6.8c2.4-3.8,7.7-8.5,17.3-8.5,7.8,0,13.9,3.1,18,8.4,4.3-4.9,10.7-8.4,19.8-8.4,16.2,0,24.4,12.3,24.4,27.1v45.9Z" transform="translate(-70.4 -670.3)"/>
    <path class="a" d="M926.6,740.9a27.4,27.4,0,0,0,15.3,5c3.5,0,4.9-1.2,4.9-2.6,0-5.9-32.1-3.4-32.1-28.5,0-14,12.7-23.1,29.2-23.1,13.2,0,21.9,5.9,26.9,11.7l-16.9,13.4c-2.6-2.3-5.9-4.6-10.5-4.6-2.8,0-4,1.2-4,2.4,0,7,32.5,4.2,32.5,27.8,0,15.8-12.3,24-29.7,24-13.4,0-25.1-5.9-29.7-11.3Z" transform="translate(-70.4 -670.3)"/>
  </g>
</svg>
