<svg xmlns="http://www.w3.org/2000/svg" width="901.3" height="96.3" viewBox="0 0 901.3 96.3">
  <defs>
    <style>
      .a {
        fill: #f8f8f2;
      }
    </style>
  </defs>
  <title>3) loveyouforms__text-light-gray</title>
  <g>
    <path class="a" d="M2475.2,1384.9h26.9v71h27.1v23.5h-54v-94.5Z" transform="translate(-2475.2 -1384.9)"/>
    <path class="a" d="M2572.8,1481.2c-22.5,0-39.7-15.8-39.7-37.4s17.1-37.4,39.7-37.4,39.7,15.8,39.7,37.4S2595.4,1481.2,2572.8,1481.2Zm0-22.5c7.8,0,13.5-5.8,13.5-14.8s-5.7-15-13.5-15-13.5,5.9-13.5,15S2565,1458.7,2572.8,1458.7Z" transform="translate(-2475.2 -1384.9)"/>
    <path class="a" d="M2635.3,1479.4l-24.2-71.3h28.1l11.5,44.3,11.3-44.3h27.3l-23.5,71.3h-30.5Z" transform="translate(-2475.2 -1384.9)"/>
    <path class="a" d="M2724.2,1406.4c23.5,0,35.9,14.6,35.9,39.6,0,1.5-.1,3.4-0.3,4.7h-44.5c1.3,5.5,5.9,8.6,12.4,8.6a16.6,16.6,0,0,0,12.8-6.3l17.8,12.4c-1.6,3.5-11.6,15.8-31,15.8-24.4,0-38.9-17.5-38.9-38.3S2702.3,1406.4,2724.2,1406.4Zm9.3,28.3a8.9,8.9,0,0,0-17.5,0h17.5Z" transform="translate(-2475.2 -1384.9)"/>
    <path class="a" d="M2792.3,1437.2l-29.3-52.2h30.1l12.6,28.5,13.1-28.5h29.6l-29.3,52.2v42.3h-26.7v-42.3Z" transform="translate(-2475.2 -1384.9)"/>
    <path class="a" d="M2879.1,1481.2c-22.5,0-39.7-15.8-39.7-37.4s17.1-37.4,39.7-37.4,39.7,15.8,39.7,37.4S2901.7,1481.2,2879.1,1481.2Zm0-22.5c7.8,0,13.5-5.8,13.5-14.8s-5.7-15-13.5-15-13.5,5.9-13.5,15S2871.3,1458.7,2879.1,1458.7Z" transform="translate(-2475.2 -1384.9)"/>
    <path class="a" d="M2926.7,1454.1v-45.9h26.2v42c0,5.4,3.2,8,7.6,8s7.6-3.5,7.6-7.6v-42.4h26.2v71.3h-25.5v-6.7c-2.6,3.6-9,8.5-17.8,8.5C2934,1481.2,2926.7,1470.5,2926.7,1454.1Z" transform="translate(-2475.2 -1384.9)"/>
    <path class="a" d="M3007.3,1384.9h52.5v23.5h-25.6v13.2h22.3V1445h-22.3v34.4h-26.9v-94.5Z" transform="translate(-2475.2 -1384.9)"/>
    <path class="a" d="M3104.6,1481.2c-22.5,0-39.7-15.8-39.7-37.4s17.1-37.4,39.7-37.4,39.7,15.8,39.7,37.4S3127.1,1481.2,3104.6,1481.2Zm0-22.5c7.8,0,13.5-5.8,13.5-14.8s-5.7-15-13.5-15-13.5,5.9-13.5,15S3096.8,1458.7,3104.6,1458.7Z" transform="translate(-2475.2 -1384.9)"/>
    <path class="a" d="M3196.7,1431.9a15.7,15.7,0,0,0-4.2-.5c-8.8,0-13.6,5.5-13.6,14.8v33.2h-26.2v-71.3h25.5v9a20.7,20.7,0,0,1,18.5-10.8v25.5Z" transform="translate(-2475.2 -1384.9)"/>
    <path class="a" d="M3310.3,1479.4h-26.2v-42.5c0-4.5-2.7-7.4-6.9-7.4s-6.5,3.2-6.5,7.4v42.5h-26.1v-42c0-5-2.4-8-6.7-8s-6.5,2.4-6.5,7.6v42.4h-26.2v-71.3h25.5v6.8c2.4-3.8,7.7-8.5,17.3-8.5,7.8,0,13.9,3.1,18,8.4,4.3-4.9,10.7-8.4,19.8-8.4,16.2,0,24.4,12.3,24.4,27.1v45.9Z" transform="translate(-2475.2 -1384.9)"/>
    <path class="a" d="M3331.4,1455.6a27.4,27.4,0,0,0,15.3,5c3.5,0,4.9-1.2,4.9-2.6,0-5.9-32.1-3.4-32.1-28.5,0-14,12.7-23.1,29.2-23.1,13.2,0,21.9,5.9,26.9,11.7l-16.9,13.4c-2.6-2.3-5.9-4.6-10.5-4.6-2.8,0-4,1.2-4,2.4,0,7,32.5,4.2,32.5,27.8,0,15.8-12.3,24-29.7,24-13.4,0-25.1-5.9-29.7-11.3Z" transform="translate(-2475.2 -1384.9)"/>
  </g>
</svg>
